<?xml version="1.0" encoding="UTF-8"?><svg id="Layer_1" xmlns="http://www.w3.org/2000/svg" viewBox="0 0 600 600"><defs><style>.cls-1{fill:#ff9c27;}.cls-2{fill:#fd0;}.cls-3{fill:#e71f24;}.cls-4{fill:#a91f24;}</style></defs><g><path class="cls-3" d="M298.33,363.31s34.78,22.88,63.58,24.57,20.96,26.29,75.09,20.9c54.14-5.39,60.01,25.2,101.94,11.89,0,0-19.55,5.1-45.78-16.6-26.22-21.7-49.94-20.01-64.34-16.2-14.4,3.81-43.8-1.73-54.64-19.93,0,0,29.14,10.32,56.7-2.43,27.56-12.75,39.02-12.82,63.59-9.21,24.56,3.61,52.47,11.65,87.01-11.64,0,0-19.67,10.58-54.82,0-35.15-10.58-67.34-13.98-90.64,0-23.29,13.98-59.84,10.62-74.18,1.5,0,0,28.42,.57,50.88-18.04,22.46-18.61,34.43-29.85,67.83-29.95,33.4-.1,74.91-23.61,89.52-51.24,0,0-18.85,28.27-90.85,31.24-72,2.96-122.06,49.31-122.06,49.31,0,0,28.46-34.91,67-49.31,38.54-14.4,31.9-46.92,52.09-60.56,20.19-13.65,49.77-27.23,60.25-60.63,0,0-19.73,27.31-49.75,33.64-44.17,9.32-51.15,42.86-58.35,56.31-7.2,13.45-37.53,33.6-54.64,30.82,0,0,38.36-21.73,42.25-60.14,3.89-38.41,15.77-45.44,34.83-60.63,19.06-15.19,38.76-44.47,32.93-74.51,0,0,3.49,30.1-26.58,45.35-30.07,15.25-47.44,30.92-52.52,57.6-5.08,26.68-38.77,47.71-38.77,47.71,0,0,28.26-41.03,21.23-71.59-7.02-30.56,8.22-57.01,20.93-70.57,12.71-13.55,16.31-44.68,7.94-61.94,0,0,8.21,22.12-20.65,41.77-45.18,30.75-38.69,65.61-36.5,84.6,2.19,19,10.74,79.46-31.27,86.34,0,0,30.77-41.84,16.94-79.62-13.82-37.79-25.93-41.08-.42-83.86,12.12-20.34-23.06-56.32-5.6-77.08,0,0-17.69,2.96-13.88,39.38,3.81,36.42,4.9,34.31-6.02,50.82-10.92,16.52-18.97,47.44-6.68,80.05,12.28,32.61-13.61,68.61-13.61,68.61v123.24Z"/><path class="cls-4" d="M430.89,365.52c27.56-12.75,39.02-12.82,63.59-9.21,23.91,3.52,50.98,11.21,84.25-9.84-7.89,4.58-32.69,15.44-74.36,2.16-51.39-16.38-86.96,44.38-139.48,6.38-22.87-16.55-45.84-28.35-66.55-33.37v40.63c28.84,1.54,59.66,5.25,76.15,20.81,40.09,37.84,71.72-.56,100.52,22.59,26.6,21.38,58.6,16.07,63.33,15.13-3.49,.64-21.63,2.74-45.16-16.73-26.22-21.7-49.94-20.01-64.34-16.2-14.4,3.81-43.8-1.73-54.64-19.93,0,0,29.14,10.32,56.7-2.43Z"/><path class="cls-1" d="M486.86,284.82c-57.04-3.95-71.15,23.94-81.32,36.82-10.16,12.88-28.08,23.21-43.69,24.53,0,0,28.42,.57,50.88-18.04,22.46-18.61,34.43-29.85,67.83-29.95,33.4-.1,74.91-23.61,89.52-51.24,0,0-26.19,41.83-83.22,37.87Z"/><path class="cls-2" d="M392.55,89.43c-35.01,25.98-16.38,64.94-15.81,86.96,.56,22.02-7.91,65.51-62.12,89.79,0,0,81.88-19.76,93.74-71.72,10.71-46.94,72.64-56.36,76.35-97.59,.28-4.74,0-9.56-.93-14.39,0,0,3.49,30.1-26.58,45.35-30.07,15.25-47.44,30.92-52.52,57.6-5.08,26.68-38.77,47.71-38.77,47.71,0,0,28.26-41.03,21.23-71.59-7.02-30.56,8.22-57.01,20.93-70.57,12.71-13.55,16.31-44.68,7.94-61.94,0,0,.2,.53,.42,1.5,1.72,6.89,6.78,36.12-23.89,58.88Z"/><path class="cls-2" d="M324.64,40.59c3.81,36.42,4.9,34.31-6.02,50.82-10.92,16.52-18.97,47.43-6.68,80.05s-13.61,68.61-13.61,68.61v16.52c21.54-16.52,48.59-60.24,26.74-103.76-21.85-43.52,22.87-61.84,8.47-99.95-14.4-38.12,4.99-51.67,4.99-51.67,0,0-17.69,2.96-13.88,39.38Z"/><path class="cls-1" d="M486.76,190.63c-44.17,9.32-51.15,42.86-58.35,56.31-7.2,13.45-37.53,33.6-54.64,30.82,37.27,7.2,57.6-12.71,64.75-30.82,7.15-18.11,16.93-42.11,49.18-50.08,32.25-7.97,48.81-39.87,48.81-39.87,0,0-19.73,27.31-49.75,33.64Z"/><path class="cls-2" d="M422.9,347.65s31.7-28.8,84.71-11.65c0,0-49.13-29.01-84.71,11.65Z"/><path class="cls-2" d="M544.67,280.3s-22.87,23.29-66.92,20.96c0,0,48.92,12.28,66.92-20.96Z"/><path class="cls-1" d="M451.91,161.08s-27.76,16.05-30.53,49.13c-.31,3.7,3.41,6.43,6.84,5h0c1.92-.8,3.13-2.72,3.04-4.8-.37-7.93,.89-28.57,20.66-49.33Z"/><path class="cls-2" d="M484.24,220.67c-2.39-1.63-5.59-1.44-7.75,.48-4.48,3.97-11.41,12.1-13.77,25.8-3.6,20.86-26.08,29.55-26.08,29.55,0,0,22.47-7.06,29.33-25.41,4.59-12.28,10.04-16.05,17.29-19.25,4.59-2.03,5.24-8.26,1.09-11.08l-.11-.07Z"/><path class="cls-1" d="M373.77,85.48s-27.25,28.8-17.36,64.09c0,0-21.46-37.27,17.36-64.09Z"/><path class="cls-1" d="M488.83,85.48s3.08,36-18.35,56.75c0,0,32.75-20.05,18.35-56.75Z"/><path class="cls-2" d="M561.11,249.81s-11.86,13.55-43.76,18.92c0,0,49.25-31.91,43.76-18.92Z"/></g><g><path class="cls-3" d="M301.67,363.31s-34.78,22.88-63.58,24.57c-28.8,1.69-20.96,26.29-75.09,20.9-54.14-5.39-60.01,25.2-101.94,11.89,0,0,19.55,5.1,45.78-16.6,26.22-21.7,49.94-20.01,64.34-16.2,14.4,3.81,43.8-1.73,54.64-19.93,0,0-29.14,10.32-56.7-2.43-27.56-12.75-39.02-12.82-63.59-9.21-24.56,3.61-52.47,11.65-87.01-11.64,0,0,19.67,10.58,54.82,0,35.15-10.58,67.34-13.98,90.64,0,23.29,13.98,59.84,10.62,74.18,1.5,0,0-28.42,.57-50.88-18.04-22.46-18.61-34.43-29.85-67.83-29.95-33.4-.1-74.91-23.61-89.52-51.24,0,0,18.85,28.27,90.85,31.24,72,2.96,122.06,49.31,122.06,49.31,0,0-28.46-34.91-67-49.31-38.54-14.4-31.9-46.92-52.09-60.56-20.19-13.65-49.77-27.23-60.25-60.63,0,0,19.73,27.31,49.75,33.64,44.17,9.32,51.15,42.86,58.35,56.31,7.2,13.45,37.53,33.6,54.64,30.82,0,0-38.36-21.73-42.25-60.14-3.89-38.41-15.77-45.44-34.83-60.63-19.06-15.19-38.76-44.47-32.93-74.51,0,0-3.49,30.1,26.58,45.35,30.07,15.25,47.44,30.92,52.52,57.6,5.08,26.68,38.77,47.71,38.77,47.71,0,0-28.26-41.03-21.23-71.59,7.02-30.56-8.22-57.01-20.93-70.57-12.71-13.55-16.31-44.68-7.94-61.94,0,0-8.21,22.12,20.65,41.77,45.18,30.75,38.69,65.61,36.5,84.6-2.19,19-10.74,79.46,31.27,86.34,0,0-30.77-41.84-16.94-79.62,13.82-37.79,25.93-41.08,.42-83.86-12.12-20.34,23.06-56.32,5.6-77.08,0,0,17.69,2.96,13.88,39.38-3.81,36.42-4.9,34.31,6.02,50.82s18.97,47.44,6.68,80.05c-12.28,32.61,13.61,68.61,13.61,68.61v123.24Z"/><path class="cls-4" d="M169.11,365.52c-27.56-12.75-39.02-12.82-63.59-9.21-23.91,3.52-50.98,11.21-84.25-9.84,7.89,4.58,32.69,15.44,74.36,2.16,51.39-16.38,86.96,44.38,139.48,6.38,22.87-16.55,45.84-28.35,66.55-33.37v40.63c-28.84,1.54-59.66,5.25-76.15,20.81-40.09,37.84-71.72-.56-100.52,22.59-26.6,21.38-58.6,16.07-63.33,15.13,3.49,.64,21.63,2.74,45.16-16.73,26.22-21.7,49.94-20.01,64.34-16.2,14.4,3.81,43.8-1.73,54.64-19.93,0,0-29.14,10.32-56.7-2.43Z"/><path class="cls-1" d="M113.14,284.82c57.04-3.95,71.15,23.94,81.32,36.82,10.16,12.88,28.08,23.21,43.69,24.53,0,0-28.42,.57-50.88-18.04-22.46-18.61-34.43-29.85-67.83-29.95-33.4-.1-74.91-23.61-89.52-51.24,0,0,26.19,41.83,83.22,37.87Z"/><path class="cls-2" d="M207.45,89.43c35.01,25.98,16.38,64.94,15.81,86.96-.56,22.02,7.91,65.51,62.12,89.79,0,0-81.88-19.76-93.74-71.72-10.71-46.94-72.64-56.36-76.35-97.59-.28-4.74,0-9.56,.93-14.39,0,0-3.49,30.1,26.58,45.35,30.07,15.25,47.44,30.92,52.52,57.6,5.08,26.68,38.77,47.71,38.77,47.71,0,0-28.26-41.03-21.23-71.59,7.02-30.56-8.22-57.01-20.93-70.57-12.71-13.55-16.31-44.68-7.94-61.94,0,0-.2,.53-.42,1.5-1.72,6.89-6.78,36.12,23.89,58.88Z"/><path class="cls-2" d="M275.36,40.59c-3.81,36.42-4.9,34.31,6.02,50.82,10.92,16.52,18.97,47.43,6.68,80.05-12.28,32.61,13.61,68.61,13.61,68.61v16.52c-21.54-16.52-48.59-60.24-26.74-103.76,21.85-43.52-22.87-61.84-8.47-99.95,14.4-38.12-4.99-51.67-4.99-51.67,0,0,17.69,2.96,13.88,39.38Z"/><path class="cls-1" d="M113.24,190.63c44.17,9.32,51.15,42.86,58.35,56.31,7.2,13.45,37.53,33.6,54.64,30.82-37.27,7.2-57.6-12.71-64.75-30.82-7.15-18.11-16.93-42.11-49.18-50.08-32.25-7.97-48.81-39.87-48.81-39.87,0,0,19.73,27.31,49.75,33.64Z"/><path class="cls-2" d="M177.1,347.65s-31.7-28.8-84.71-11.65c0,0,49.13-29.01,84.71,11.65Z"/><path class="cls-2" d="M55.33,280.3s22.87,23.29,66.92,20.96c0,0-48.92,12.28-66.92-20.96Z"/><path class="cls-1" d="M148.09,161.08s27.76,16.05,30.53,49.13c.31,3.7-3.41,6.43-6.84,5h0c-1.92-.8-3.13-2.72-3.04-4.8,.37-7.93-.89-28.57-20.66-49.33Z"/><path class="cls-2" d="M115.76,220.67c2.39-1.63,5.59-1.44,7.75,.48,4.48,3.97,11.41,12.1,13.77,25.8,3.6,20.86,26.08,29.55,26.08,29.55,0,0-22.47-7.06-29.33-25.41-4.59-12.28-10.04-16.05-17.29-19.25-4.59-2.03-5.24-8.26-1.09-11.08l.11-.07Z"/><path class="cls-1" d="M226.23,85.48s27.25,28.8,17.36,64.09c0,0,21.46-37.27-17.36-64.09Z"/><path class="cls-1" d="M111.17,85.48s-3.08,36,18.35,56.75c0,0-32.75-20.05-18.35-56.75Z"/><path class="cls-2" d="M38.89,249.81s11.86,13.55,43.76,18.92c0,0-49.25-31.91-43.76-18.92Z"/></g></svg>