<?xml version="1.0" standalone="no"?>
<!DOCTYPE svg PUBLIC "-//W3C//DTD SVG 20010904//EN"
 "http://www.w3.org/TR/2001/REC-SVG-20010904/DTD/svg10.dtd">
<svg version="1.0" xmlns="http://www.w3.org/2000/svg"
 width="700.000000pt" height="700.000000pt" viewBox="0 0 700.000000 700.000000"
 preserveAspectRatio="xMidYMid meet">
<metadata>
Created by potrace 1.14, written by Peter Selinger 2001-2017
</metadata>
<g transform="translate(0.000000,700.000000) scale(0.100000,-0.100000)"
fill="#000000" stroke="none">
<path d="M3060 6985 c0 -3 9 -24 20 -46 44 -85 33 -201 -36 -394 -62 -174 -86
-267 -87 -332 0 -57 5 -71 86 -232 96 -190 123 -282 114 -379 -8 -76 -22 -117
-106 -319 -90 -215 -109 -289 -109 -414 0 -208 70 -427 205 -642 14 -22 23
-41 20 -43 -2 -2 -32 6 -67 17 -160 55 -264 207 -298 434 -15 106 -6 476 14
565 13 61 16 300 4 366 -16 85 -55 196 -86 246 -13 21 -24 40 -24 44 0 14 -93
124 -151 180 -35 33 -105 91 -156 128 -194 141 -283 288 -266 439 7 56 -2 45
-22 -28 -32 -117 -25 -298 16 -440 19 -66 66 -151 113 -204 205 -230 291 -513
241 -791 -43 -237 20 -481 206 -800 18 -30 26 -50 18 -44 -8 6 -39 30 -69 53
-79 61 -185 166 -237 236 -64 85 -98 158 -127 272 -42 165 -93 260 -200 371
-92 96 -180 159 -371 262 -114 61 -156 92 -210 152 -78 87 -134 220 -136 328
-1 37 -2 41 -9 20 -15 -47 -2 -192 25 -284 64 -221 192 -397 426 -586 115 -93
167 -144 210 -206 63 -92 107 -228 129 -404 6 -52 18 -122 27 -155 53 -214
209 -416 449 -583 16 -11 9 -12 -48 -8 -134 10 -323 107 -462 237 -73 68 -79
78 -165 252 -164 334 -284 435 -622 527 -59 16 -133 41 -165 55 -97 43 -217
130 -318 230 -87 88 -94 93 -80 58 89 -224 223 -363 561 -580 78 -51 151 -100
163 -110 35 -30 89 -110 121 -181 61 -133 111 -227 145 -274 69 -94 172 -170
294 -218 54 -21 215 -99 255 -123 156 -95 289 -202 446 -360 74 -73 79 -86 15
-34 -133 109 -412 271 -586 341 -127 50 -334 114 -425 131 -124 22 -202 31
-335 40 -187 12 -323 27 -425 49 -249 53 -463 149 -589 265 l-39 36 19 -34
c22 -38 130 -167 165 -196 181 -149 318 -228 504 -291 148 -49 191 -56 430
-69 167 -9 297 -48 430 -129 28 -17 118 -85 200 -151 85 -68 185 -138 230
-162 90 -46 221 -90 298 -99 29 -4 72 -9 97 -13 l45 -6 -55 -22 c-114 -46
-183 -57 -345 -58 -205 0 -295 20 -465 105 -129 64 -173 79 -280 96 -66 10
-243 12 -313 2 -34 -5 -78 -10 -98 -13 -21 -3 -60 -10 -86 -16 -26 -6 -55 -12
-63 -14 -43 -9 -86 -20 -195 -50 -232 -64 -414 -76 -564 -36 -76 20 -80 17
-21 -18 148 -86 343 -141 504 -141 60 0 262 21 331 34 11 2 45 8 75 12 30 4
57 9 60 9 20 5 146 17 199 19 139 5 272 -27 473 -113 169 -72 237 -86 403 -85
88 0 166 6 210 16 39 9 72 14 74 12 7 -6 -39 -56 -88 -95 -122 -98 -350 -156
-500 -127 -25 5 -62 11 -81 14 -19 3 -39 8 -43 11 -4 2 -54 4 -110 4 -192 0
-352 -62 -556 -216 -172 -130 -288 -182 -436 -195 l-70 -6 60 -14 c33 -7 105
-13 160 -13 108 1 78 -7 415 111 157 56 253 70 425 65 295 -10 407 -7 475 11
86 22 153 55 231 115 104 78 165 104 279 116 121 13 234 41 346 85 104 42 325
153 360 181 8 7 30 -1 65 -22 154 -91 325 -166 459 -204 85 -23 119 -30 215
-41 99 -11 154 -34 266 -110 183 -125 229 -138 469 -135 371 5 406 5 447 -2
89 -14 178 -39 290 -81 144 -55 197 -73 243 -82 57 -12 221 -6 275 9 l50 15
-55 1 c-133 2 -277 65 -451 195 -213 160 -360 217 -559 216 -86 0 -95 -1 -204
-24 -129 -27 -293 -2 -431 65 -101 49 -236 174 -167 156 92 -26 144 -32 272
-32 173 1 222 12 419 94 75 32 163 65 196 74 68 19 203 35 255 31 88 -6 177
-15 200 -18 287 -46 351 -54 455 -54 162 0 315 37 455 109 118 60 125 69 39
47 -132 -33 -335 -27 -489 16 -30 8 -89 25 -130 36 -225 62 -403 89 -571 85
-153 -4 -260 -31 -414 -105 -66 -32 -136 -63 -156 -69 -133 -42 -352 -51 -496
-21 -82 17 -209 58 -201 65 2 2 29 6 61 10 134 14 247 45 352 98 66 33 149 85
180 114 60 56 234 187 296 224 75 43 205 92 274 103 22 3 94 9 160 12 161 7
279 28 405 70 276 92 534 282 666 489 17 27 14 26 -30 -12 -103 -90 -201 -143
-371 -201 -86 -29 -233 -65 -320 -76 -152 -21 -183 -24 -300 -31 -187 -11
-235 -18 -476 -70 -9 -2 -52 -15 -95 -28 -264 -84 -550 -232 -764 -395 -93
-71 -90 -62 10 38 195 193 435 362 610 430 110 42 222 105 278 156 57 51 142
165 161 217 30 78 117 242 150 284 26 34 75 73 148 119 311 197 425 295 529
450 30 45 54 84 54 88 0 6 26 68 47 111 3 6 -26 -22 -64 -60 -186 -192 -298
-256 -583 -336 -99 -27 -222 -87 -292 -143 -112 -89 -185 -194 -283 -410 -36
-80 -64 -125 -104 -168 -136 -147 -397 -285 -522 -276 l-42 3 54 34 c69 45
244 220 290 291 94 144 118 213 149 425 47 320 121 445 380 637 63 46 180 169
231 242 63 88 111 183 143 278 38 114 54 247 38 313 l-10 40 -1 -49 c-1 -26
-8 -75 -17 -109 -42 -161 -139 -275 -319 -371 -289 -156 -444 -296 -528 -478
-15 -32 -38 -103 -52 -159 -56 -220 -154 -348 -434 -563 -8 -6 0 14 18 44 142
243 221 474 221 644 0 35 -7 105 -16 157 -23 133 -15 286 21 399 47 146 123
282 214 381 92 100 150 261 156 435 3 97 -11 210 -34 264 -9 21 -10 18 -7 -25
10 -159 -69 -283 -279 -441 -207 -155 -320 -298 -378 -479 -28 -86 -32 -116
-32 -265 0 -136 4 -190 25 -350 5 -36 7 -148 5 -250 -3 -144 -8 -201 -23 -256
-52 -192 -138 -300 -279 -351 -36 -13 -67 -22 -70 -20 -2 2 14 33 35 68 129
213 194 433 188 634 -5 148 -10 166 -117 423 -81 193 -91 226 -95 314 -4 110
32 214 144 420 79 146 77 196 -27 488 -77 220 -87 326 -38 415 l26 46 -37 -21
c-45 -25 -83 -78 -107 -145 -22 -60 -29 -231 -15 -350 17 -141 25 -238 24
-302 -1 -67 -26 -126 -107 -258 -151 -243 -182 -579 -82 -877 70 -209 67 -351
-11 -569 -28 -79 -103 -229 -115 -229 -19 0 -117 221 -144 325 -44 172 -41
288 15 457 43 129 62 247 62 373 0 215 -50 386 -164 565 -68 106 -80 139 -81
214 -1 72 12 246 19 257 2 4 6 67 10 140 7 162 -8 253 -56 326 -27 41 -100
105 -100 88z"/>
<path d="M1276 5938 c-32 -106 -24 -250 20 -345 38 -82 117 -182 179 -226 28
-20 27 -18 -8 23 -48 56 -110 182 -136 277 -20 75 -36 206 -34 281 1 23 0 42
-1 42 -2 0 -11 -24 -20 -52z"/>
<path d="M2690 5938 c138 -182 202 -424 166 -631 l-6 -32 15 33 c48 105 56
288 17 397 -28 75 -77 150 -143 215 -74 73 -98 82 -49 18z"/>
<path d="M4313 5968 c-46 -35 -120 -118 -150 -168 -54 -91 -72 -165 -69 -280
3 -103 33 -230 56 -245 6 -4 6 5 0 21 -15 38 -19 166 -9 244 18 125 88 290
169 398 22 28 38 52 37 52 -2 0 -17 -10 -34 -22z"/>
<path d="M5703 5903 c-1 -37 -5 -81 -7 -98 -3 -16 -8 -48 -12 -70 -17 -110
-81 -257 -148 -340 -25 -32 -31 -43 -15 -30 191 153 260 352 203 581 -11 43
-19 25 -21 -43z"/>
<path d="M1789 5049 c105 -130 178 -321 180 -475 1 -60 18 -86 55 -86 32 0 57
20 58 48 3 62 -32 195 -74 278 -33 66 -116 173 -177 227 -84 76 -100 79 -42 8z"/>
<path d="M5193 5061 c-155 -128 -268 -336 -275 -502 -2 -50 25 -79 67 -71 34
6 41 23 48 112 9 103 15 134 43 210 33 85 75 161 135 238 27 34 47 62 45 62
-3 0 -31 -22 -63 -49z"/>
<path d="M1343 4417 c-16 -13 -23 -29 -23 -51 0 -37 24 -63 86 -95 49 -24 106
-87 134 -148 11 -24 30 -64 42 -90 27 -60 126 -159 201 -201 70 -40 87 -42 26
-4 -60 39 -131 113 -163 172 -14 26 -35 86 -47 132 -27 110 -72 199 -131 259
-52 54 -82 60 -125 26z"/>
<path d="M5532 4391 c-59 -61 -103 -148 -132 -260 -37 -146 -86 -216 -221
-314 l-24 -18 25 12 c92 43 205 150 240 227 52 112 67 139 99 175 19 21 56 49
82 62 61 32 79 50 79 85 0 37 -28 69 -67 76 -28 6 -37 1 -81 -45z"/>
<path d="M450 4106 c0 -46 173 -149 335 -199 70 -21 155 -40 160 -35 6 6 -210
134 -321 191 -102 52 -174 70 -174 43z"/>
<path d="M6440 4093 c-62 -25 -239 -123 -345 -191 l-50 -33 44 6 c67 9 248 72
311 107 83 46 150 100 150 120 0 25 -32 23 -110 -9z"/>
<path d="M674 3684 c99 -136 248 -208 457 -221 94 -5 236 3 225 14 -3 3 -39 7
-79 10 -64 3 -136 15 -245 39 -80 17 -244 94 -313 146 -69 53 -76 55 -45 12z"/>
<path d="M6293 3681 c-155 -114 -384 -190 -585 -194 -43 -1 -78 -5 -78 -8 0
-23 308 -18 395 5 127 35 229 103 300 199 15 20 26 37 24 37 -2 -1 -27 -18
-56 -39z"/>
<path d="M1448 3195 c-2 -2 -27 -6 -57 -9 -29 -4 -57 -8 -61 -11 -3 -2 -17 -6
-31 -9 -33 -6 -201 -67 -197 -72 2 -2 33 4 68 12 36 8 80 17 100 20 19 3 46 7
60 10 63 11 307 3 331 -12 4 -2 24 -6 45 -10 74 -12 180 -56 282 -116 34 -21
62 -36 62 -33 0 2 -32 31 -70 63 -94 79 -200 131 -325 159 -22 4 -203 12 -207
8z"/>
<path d="M5340 3184 c-123 -23 -243 -85 -345 -178 l-50 -46 67 40 c100 59 207
100 333 126 139 28 324 20 486 -22 96 -24 91 -20 -46 36 -118 49 -317 69 -445
44z"/>
</g>
</svg>
